<svg width="22" height="22" viewBox="0 0 22 22" fill="none" xmlns="http://www.w3.org/2000/svg">
<path d="M11.0835 10.1718V11.8971H14.8482V14.7828H11.108V14.7727C11.0081 14.7727 10.9041 14.7828 10.8063 14.7828C10.1258 14.7841 9.4555 14.6166 8.855 14.2953C8.2544 13.974 7.7422 13.5087 7.3636 12.9409C6.9791 12.3655 6.7427 11.7032 6.6758 11.0134C6.609 10.3236 6.7136 9.62802 6.9804 8.98892C7.2944 8.24152 7.8176 7.60162 8.4868 7.14692C9.0589 6.75962 9.7183 6.52152 10.4052 6.45432C11.092 6.38722 11.7847 6.49302 12.4207 6.76212C12.7878 6.91712 13.131 7.12382 13.4398 7.37622H20.7778C20.6819 7.08132 20.5739 6.79082 20.4577 6.50842C19.7191 4.76082 18.5229 3.24672 16.996 2.12707C15.4692 1.00733 13.6688 0.323916 11.7862 0.149126C9.9035 -0.0256545 8.0088 0.314945 6.3035 1.13461C4.5981 1.95433 3.1457 3.22252 2.10054 4.80452C1.05532 6.38652 0.456484 8.22322 0.367534 10.1195C0.278654 12.0158 0.702864 13.9009 1.59527 15.5745C2.48773 17.2481 3.815 18.6477 5.436 19.6247C7.0572 20.6017 8.9115 21.1196 10.8023 21.1233H21.1976V10.1616L11.0835 10.1718ZM14.8482 19.3816H11.3831C11.2507 19.3816 11.1182 19.3959 10.9756 19.398H10.6799C9.1771 19.379 7.7044 18.9715 6.404 18.2147C5.1037 17.4578 4.0194 16.3774 3.256 15.0774C2.4926 13.7774 2.07566 12.3019 2.04547 10.793C2.01529 9.28412 2.37286 7.79302 3.0836 6.46332C3.7944 5.13362 4.8345 4.01032 6.1035 3.20172C7.3727 2.39308 8.8278 1.92638 10.3288 1.84678C11.8297 1.76718 13.3257 2.07735 14.6725 2.74728C16.0193 3.41712 17.1715 4.42422 18.0179 5.67132H13.9901C13.2238 5.17072 12.3518 4.85672 11.4432 4.75432C10.5347 4.65202 9.615 4.76412 8.7573 5.08172C7.8996 5.39942 7.1275 5.91382 6.5028 6.58402C5.878 7.25412 5.4179 8.06152 5.1589 8.94192C4.8999 9.82222 4.8491 10.7512 5.0109 11.6546C5.1726 12.558 5.5423 13.411 6.0904 14.1457C6.6384 14.8804 7.3499 15.4763 8.1679 15.8862C8.9861 16.296 9.8881 16.5082 10.8023 16.5061H14.8442L14.8482 19.3816ZM19.4998 19.398H16.5687L16.5828 19.3878H16.5687V16.5061H19.4998V19.398ZM19.4998 14.7869H16.5687V11.9012H19.4998V14.7869Z" fill="#212B36"/>
</svg>
